# File produced by Open Asset Import Library (http://www.assimp.sf.net)
# (assimp v3.1.243586452)

mtllib Plataforma.mtl

# vertex positions
v 3.597321 4.599703 -1.903162
v -0.891687 4.599703 -1.903162
v -0.891687 4.599703 1.896831
v 3.597321 4.599703 1.896831
v 1.167025 3.595294 0.156442
v 1.167025 3.435685 0.222553
v 1.538609 3.435685 0.222553
v 1.538609 3.595294 0.156442
v 1.167025 3.276078 0.156441
v 1.538609 3.276078 0.156441
v 1.167025 3.209967 -0.003166
v 1.538609 3.209967 -0.003166
v 1.167025 3.276078 -0.162773
v 1.538609 3.276078 -0.162773
v 1.167025 3.435685 -0.228885
v 1.538609 3.435685 -0.228885
v 1.167025 3.595294 -0.162774
v 1.538609 3.595294 -0.162774
v 1.167025 3.605029 -0.003166
v 1.167025 3.538759 -0.106239
v 1.167025 3.525078 -0.003166
v 1.167025 3.538759 0.099907
v 1.167025 3.435685 0.142602
v 1.167025 3.332612 0.099907
v 1.167025 3.289918 -0.003166
v 1.167025 3.332612 -0.106239
v 1.167025 3.435685 -0.148934
v 1.538609 3.605029 -0.003166
v 1.538609 3.525078 -0.003166
v 1.538609 3.538759 -0.106239
v 1.538609 3.538759 0.099907
v 1.538609 3.435685 0.142602
v 1.538609 3.332612 0.099907
v 1.538609 3.289918 -0.003166
v 1.538609 3.332612 -0.106239
v 1.538609 3.435685 -0.148934
v 1.215522 3.725317 -0.121112
v 1.490112 3.725317 -0.121112
v 1.215522 3.725317 0.114780
v 1.490112 3.725317 0.114780
v 1.617890 3.840281 -0.230882
v 1.087744 3.840281 -0.230882
v 1.087744 3.923810 -0.230882
v 1.617890 3.923810 -0.230882
v 1.087744 3.840281 0.224550
v 1.087744 3.923810 0.224550
v 1.617890 3.840281 0.224550
v 1.617890 3.923810 0.224550
v 3.541617 4.282358 -1.883495
v -0.835983 4.282358 -1.883495
v -0.835983 4.487708 -1.883495
v 3.541617 4.487708 -1.883495
v -0.835983 4.282358 1.877163
v -0.835983 4.487708 1.877163
v 3.541617 4.282358 1.877163
v 3.541617 4.487708 1.877163
v 1.490112 4.169688 -0.121112
v 1.215522 4.169688 -0.121112
v -1.091687 4.170363 -2.103162
v 3.797321 4.170363 -2.103162
v 1.215522 4.169688 0.114780
v -1.091687 4.170363 2.096831
v 1.490112 4.169688 0.114780
v 3.797321 4.170363 2.096831
v -1.091687 4.270363 -2.103162
v 3.797321 4.270363 -2.103162
v -1.091687 4.599703 -2.103162
v 3.797321 4.599703 -2.103162
v 3.797321 4.499703 -2.103162
v -1.091687 4.499703 -2.103162
v -1.091687 4.270363 2.096831
v -1.091687 4.599703 2.096831
v -1.091687 4.499703 2.096831
v 3.797321 4.270363 2.096831
v 3.797321 4.599703 2.096831
v 3.797321 4.499703 2.096831
v 3.797321 4.689687 -2.103162
v -1.091687 4.689687 -2.103162
v -0.891687 4.689687 -1.903162
v 3.597321 4.689687 -1.903162
v -1.091687 4.689687 2.096831
v -0.891687 4.689687 1.896831
v 3.797321 4.689687 2.096831
v 3.597321 4.689687 1.896831
v 1.215522 3.821815 0.114780
v 1.215522 3.821815 -0.121112
v 1.490112 3.821815 0.114780
v 1.490112 3.821815 -0.121112
v 1.490112 3.942278 -0.121112
v 1.215522 3.942278 -0.121112
v 1.215522 4.052419 -0.121112
v 1.490112 4.052419 -0.121112
v 1.490112 3.942278 0.114780
v 1.490112 4.052419 0.114780
v 1.215522 3.942278 0.114780
v 1.215522 4.052419 0.114780

# UV coordinates
vt 0.451113 0.906471
vt 0.145211 0.903987
vt 0.147368 0.645038
vt 0.453270 0.647522
vt 0.627980 0.582144
vt 0.627584 0.545059
vt 0.724492 0.544023
vt 0.724888 0.581109
vt 0.627187 0.507974
vt 0.724096 0.506938
vt 0.626791 0.470889
vt 0.723699 0.469853
vt 0.626395 0.433803
vt 0.723303 0.432768
vt 0.625998 0.396718
vt 0.722907 0.395683
vt 0.625602 0.359633
vt 0.722510 0.358597
vt 0.891660 0.665925
vt 0.820830 0.673294
vt 0.841543 0.644332
vt 0.885827 0.630801
vt 0.961070 0.650003
vt 0.932108 0.629291
vt 0.612053 0.575745
vt 0.611797 0.551796
vt 0.611657 0.538660
vt 0.611401 0.514711
vt 0.611261 0.501575
vt 0.611005 0.477626
vt 0.610864 0.464490
vt 0.610608 0.440541
vt 0.610468 0.427405
vt 0.610212 0.403456
vt 0.610072 0.390320
vt 0.609816 0.366371
vt 0.976773 0.735404
vt 0.900321 0.746357
vt 0.897182 0.707869
vt 0.947338 0.710408
vt 0.823104 0.747936
vt 0.848100 0.718501
vt 0.740418 0.550422
vt 0.740675 0.574371
vt 0.740022 0.513337
vt 0.740278 0.537286
vt 0.739626 0.476251
vt 0.739882 0.500201
vt 0.739230 0.439166
vt 0.739485 0.463116
vt 0.738833 0.402081
vt 0.739089 0.426030
vt 0.738437 0.364996
vt 0.738693 0.388946
vt 0.698984 0.055204
vt 0.735208 0.054833
vt 0.736710 0.201410
vt 0.700486 0.201781
vt 0.771432 0.054461
vt 0.772934 0.201039
vt 0.807657 0.054090
vt 0.809159 0.200668
vt 0.841417 0.053744
vt 0.842919 0.200322
vt 0.556551 0.056664
vt 0.590311 0.056318
vt 0.591814 0.202895
vt 0.558053 0.203241
vt 0.662760 0.055575
vt 0.664262 0.202153
vt 0.626536 0.055946
vt 0.628038 0.202524
vt 0.810095 0.404811
vt 0.787506 0.306330
vt 0.825350 0.301670
vt 0.849138 0.394073
vt 0.774622 0.278286
vt 0.762284 0.233796
vt 0.796637 0.242780
vt 0.774133 0.569461
vt 0.801433 0.454549
vt 0.839773 0.469762
vt 0.813514 0.555813
vt 0.815319 0.429293
vt 0.767058 0.645767
vt 0.767728 0.800431
vt 0.743362 0.800543
vt 0.742684 0.645858
vt 0.743261 0.820574
vt 0.616335 0.821106
vt 0.616034 0.801077
vt 0.591660 0.801168
vt 0.590990 0.646504
vt 0.615356 0.646392
vt 0.615457 0.626361
vt 0.742383 0.625829
vt 0.444314 0.236868
vt 0.151181 0.237313
vt 0.151160 0.223562
vt 0.444293 0.223118
vt 0.110277 0.273510
vt 0.110671 0.525331
vt 0.096920 0.525348
vt 0.096527 0.273527
vt 0.151686 0.561407
vt 0.444819 0.560963
vt 0.444840 0.574713
vt 0.151708 0.575158
vt 0.485723 0.524765
vt 0.485330 0.272945
vt 0.499081 0.272928
vt 0.499474 0.524748
vt 0.307182 0.391226
vt 0.288795 0.391254
vt 0.134092 0.258766
vt 0.461470 0.258270
vt 0.288819 0.407049
vt 0.134531 0.540006
vt 0.307206 0.407022
vt 0.461909 0.539509
vt 0.134082 0.252070
vt 0.461459 0.251574
vt 0.131364 0.929769
vt 0.464525 0.932474
vt 0.464468 0.939289
vt 0.131308 0.936583
vt 0.127835 0.540014
vt 0.127396 0.258775
vt 0.121594 0.631216
vt 0.119200 0.917423
vt 0.112384 0.917377
vt 0.114781 0.631171
vt 0.461919 0.546205
vt 0.134541 0.546702
vt 0.467116 0.621740
vt 0.133957 0.619035
vt 0.134013 0.612220
vt 0.467173 0.614926
vt 0.468166 0.258261
vt 0.468605 0.539501
vt 0.476887 0.920293
vt 0.479281 0.634086
vt 0.486097 0.634132
vt 0.483701 0.920338
vt 0.446921 0.954139
vt 0.148611 0.951716
vt 0.095064 0.902266
vt 0.097213 0.645998
vt 0.151561 0.597370
vt 0.449870 0.599793
vt 0.503418 0.649243
vt 0.501268 0.905511
vt 0.464575 0.926343
vt 0.131415 0.923637
vt 0.145160 0.910118
vt 0.451062 0.912603
vt 0.125333 0.917464
vt 0.127724 0.631257
vt 0.141237 0.644997
vt 0.139079 0.903946
vt 0.133906 0.625166
vt 0.467066 0.627872
vt 0.453321 0.641390
vt 0.147420 0.638906
vt 0.473148 0.634045
vt 0.470757 0.920252
vt 0.457245 0.906512
vt 0.459402 0.647563
vt 0.816336 0.227055
vt 0.845335 0.281670
vt 0.861953 0.489586
vt 0.834663 0.566132
vt 0.876128 0.404980
vt 0.864367 0.470104
vt 0.852489 0.297386
vt 0.872982 0.383564
vt 0.882438 0.894139
vt 0.957035 0.894328
vt 0.957059 0.924287
vt 0.882364 0.924098
vt 0.818301 0.894005
vt 0.818220 0.923965
vt 0.743591 0.893816
vt 0.743529 0.923776
vt 0.679359 0.893682
vt 0.679291 0.923642
vt 0.957087 0.956186
vt 0.882283 0.955997
vt 0.818136 0.955863
vt 0.743477 0.955674
vt 0.679283 0.955541
vt 0.799692 0.682914
vt 0.800041 0.763014
vt 0.712004 0.763321
vt 0.711634 0.683398
vt 0.713060 0.858192
vt 0.646837 0.858466
vt 0.647084 0.763537
vt 0.559026 0.764021
vt 0.558678 0.683921
vt 0.646714 0.683614
vt 0.645658 0.588743
vt 0.711881 0.588469

# vertex normals
vn -0.000000 1.000000 -0.000000
vn -0.000000 0.382677 0.923882
vn -0.000000 0.382677 0.923882
vn -0.000000 -0.382683 0.923880
vn 0.000000 -0.923882 0.382678
vn 0.000000 -0.923882 -0.382678
vn 0.000000 -0.382683 -0.923880
vn 0.000000 0.382677 -0.923882
vn 0.000000 0.382677 -0.923882
vn 0.000000 0.382677 -0.923882
vn -1.000000 -0.000001 -0.000000
vn -1.000000 -0.000001 0.000000
vn -1.000000 -0.000001 0.000000
vn -1.000000 -0.000001 -0.000000
vn -1.000000 -0.000001 -0.000000
vn -1.000000 -0.000001 -0.000000
vn -1.000000 -0.000000 -0.000000
vn -1.000000 -0.000000 -0.000000
vn -1.000000 -0.000000 -0.000000
vn -1.000000 -0.000000 -0.000000
vn -1.000000 -0.000000 -0.000000
vn -1.000000 -0.000000 -0.000000
vn -1.000000 0.000000 -0.000000
vn -1.000000 -0.000000 0.000000
vn -1.000000 -0.000000 0.000000
vn 1.000000 -0.000000 0.000000
vn 1.000000 0.000000 0.000000
vn 1.000000 0.000000 0.000000
vn 1.000000 0.000000 0.000000
vn 1.000000 0.000000 0.000000
vn 1.000000 0.000000 0.000000
vn 1.000000 0.000000 0.000000
vn 1.000000 0.000000 0.000000
vn 1.000000 0.000000 0.000000
vn 1.000000 -0.000000 0.000000
vn 1.000000 -0.000000 0.000000
vn 1.000000 -0.000000 0.000000
vn 1.000000 -0.000000 0.000000
vn 1.000000 -0.000000 0.000000
vn 1.000000 -0.000000 0.000000
vn -0.000000 0.923881 -0.382679
vn 0.000000 0.382684 -0.923879
vn 0.000000 -0.382684 -0.923880
vn 0.000000 -0.991306 0.131577
vn 0.000000 -0.991306 -0.131577
vn -0.000000 0.923881 0.382680
vn -0.000000 0.382684 0.923879
vn -0.000000 -0.382684 0.923880
vn 0.000000 0.305140 -0.952307
vn 0.000000 0.305140 -0.952307
vn 0.000000 0.305140 -0.952307
vn 0.000000 0.305140 -0.952307
vn -0.931728 0.363157 -0.000000
vn -0.931728 0.363157 -0.000000
vn -0.931728 0.363157 -0.000000
vn -0.000000 0.305141 0.952307
vn -0.000000 0.305141 0.952307
vn 0.931727 0.363158 0.000000
vn 0.931727 0.363158 0.000000
vn 0.931727 0.363158 0.000000
vn 0.000000 0.000000 -1.000000
vn -0.000000 0.000000 1.000000
vn 1.000000 0.000000 0.000000
vn 0.000000 -1.000000 -0.000341
vn 0.000000 -1.000000 -0.000341
vn -0.000293 -1.000000 -0.000000
vn -0.000293 -1.000000 -0.000000
vn 0.000000 -1.000000 0.000341
vn 0.000293 -1.000000 0.000000
vn 0.000293 -1.000000 0.000000
vn -0.000000 0.998513 -0.054523
vn -0.000000 0.998513 -0.054523
vn -0.000000 0.998513 -0.054523
vn 0.000000 -0.998513 -0.054524
vn 0.000000 -0.998513 -0.054524
vn 0.000000 -0.998513 -0.054524
vn -0.046858 0.998902 -0.000000
vn -0.046858 0.998902 -0.000000
vn -0.046858 0.998902 -0.000000
vn -0.046858 -0.998902 -0.000000
vn -0.046858 -0.998902 -0.000000
vn -0.000000 0.998513 0.054523
vn -0.000000 0.998513 0.054523
vn -0.000000 0.998513 0.054523
vn 0.000000 -0.998513 0.054524
vn 0.000000 -0.998513 0.054524
vn 0.000000 -0.998513 0.054524
vn 0.046858 0.998902 0.000000
vn 0.046858 -0.998902 0.000000
vn 0.046858 -0.998902 0.000000
vn 0.046858 -0.998902 0.000000
vn -0.000000 1.000000 -0.000000
vn -0.000000 1.000000 -0.000000
vn -0.000000 1.000000 -0.000000
vn -0.000000 1.000000 -0.000000
vn -0.000000 1.000000 -0.000000
vn -0.000000 1.000000 -0.000000
vn -0.000000 1.000000 -0.000000
vn -0.000000 1.000000 -0.000000
vn -1.000000 0.000000 -0.000000
vn -0.000000 0.000000 -1.000000
vn -0.000000 -0.000000 -1.000000
vn -0.000000 -0.000000 -1.000000
vn -1.000000 -0.000000 -0.000000
vn -1.000000 -0.000000 -0.000000
vn -1.000000 -0.000000 -0.000000
vn -0.000000 -0.986142 -0.165902
vn -0.000000 -0.986142 -0.165902
vn -0.000000 -0.986142 -0.165902
vn -0.000000 -0.986142 -0.165902
vn -0.000000 0.986142 -0.165905
vn -0.000000 0.986142 -0.165905
vn -0.000000 0.986142 -0.165905
vn -0.000000 0.986142 -0.165905
vn -0.143037 -0.989717 -0.000000
vn -0.143037 -0.989717 -0.000000
vn -0.143037 -0.989717 -0.000000
vn -0.143037 -0.989717 -0.000000
vn -0.143041 0.989717 -0.000000
vn -0.143041 0.989717 -0.000000
vn 0.000000 -0.986142 0.165901
vn -0.000000 0.986142 0.165905
vn -0.000000 0.986142 0.165905
vn 0.143037 -0.989717 0.000000
vn 0.143037 -0.989717 0.000000
vn 0.143037 -0.989717 0.000000
vn 0.143041 0.989717 0.000000
vn 0.143041 0.989717 0.000000

# Mesh
g pCylinder2
usemtl lambert1
f 4/4/1 1/1/1 2/2/1 3/3/1
f 7/7/3 8/8/3 5/5/2 6/6/2
f 10/10/4 7/7/4 6/6/4 9/9/4
f 12/12/5 10/10/5 9/9/5 11/11/5
f 14/14/6 12/12/6 11/11/6 13/13/6
f 16/16/7 14/14/7 13/13/7 15/15/7
f 18/18/10 16/16/10 15/15/8 17/17/9
f 20/21/13 21/22/14 19/19/11 17/20/12
f 21/22/14 22/24/16 5/23/15 19/19/11
f 22/25/16 23/26/18 6/6/17 5/5/15
f 6/6/17 23/27/18 24/28/20 9/9/19
f 24/29/20 25/30/21 11/11/21 9/9/19
f 25/31/21 26/32/23 13/13/22 11/11/21
f 27/34/25 15/15/24 13/13/22 26/33/23
f 27/35/25 20/36/13 17/17/12 15/15/24
f 18/37/26 28/38/27 29/39/28 30/40/29
f 28/38/27 8/41/30 31/42/31 29/39/28
f 31/44/31 8/8/30 7/7/32 32/43/33
f 32/46/33 7/7/32 10/10/34 33/45/35
f 34/47/36 33/48/35 10/10/34 12/12/36
f 35/49/38 34/50/36 12/12/36 14/14/37
f 16/16/39 36/51/40 35/52/38 14/14/37
f 18/18/26 30/53/29 36/54/40 16/16/39
f 33/57/41 34/58/41 25/55/41 24/56/41
f 32/60/42 33/57/42 24/56/42 23/59/42
f 31/62/43 32/60/43 23/59/43 22/61/43
f 29/64/44 31/62/44 22/61/44 21/63/44
f 30/67/45 29/68/45 21/65/45 20/66/45
f 34/58/46 35/70/46 26/69/46 25/55/46
f 35/70/47 36/72/47 27/71/47 26/69/47
f 36/72/48 30/67/48 20/66/48 27/71/48
f 38/76/52 18/73/49 17/74/50 37/75/51
f 39/79/55 37/75/53 17/74/53 19/77/54 5/78/55
f 8/81/57 40/82/56 39/83/57 5/80/56
f 8/81/59 28/84/59 18/73/60 38/76/58 40/82/58
f 44/88/61 41/85/61 42/86/61 43/87/61
f 46/91/22 43/87/22 42/89/22 45/90/22
f 47/93/62 48/94/62 46/91/62 45/92/62
f 44/88/63 48/94/63 47/95/63 41/96/63
f 52/100/61 49/97/61 50/98/61 51/99/61
f 54/103/22 51/104/22 50/101/22 53/102/22
f 55/106/62 56/107/62 54/108/62 53/105/62
f 52/111/63 56/112/63 55/109/63 49/110/63
f 60/116/65 57/113/64 58/114/64 59/115/65
f 58/114/66 61/117/66 62/118/66 59/115/67
f 63/119/68 64/120/68 62/118/68 61/117/68
f 60/116/70 64/120/69 63/119/69 57/113/69
f 66/122/61 60/116/61 59/115/61 65/121/61
f 68/124/61 69/125/61 70/126/61 67/123/61
f 71/127/22 65/128/22 59/115/22 62/118/22
f 72/129/22 67/130/22 70/131/22 73/132/22
f 64/120/62 74/133/62 71/134/62 62/118/62
f 76/138/62 75/135/62 72/136/62 73/137/62
f 66/139/63 74/140/63 64/120/63 60/116/63
f 68/141/63 75/142/63 76/143/63 69/144/63
f 49/97/73 66/122/71 65/121/72 50/98/71
f 69/125/75 52/145/76 51/146/76 70/126/74
f 53/102/78 50/101/79 65/128/77 71/127/78
f 51/147/81 54/148/81 73/132/80 70/131/81
f 74/133/83 55/106/84 53/105/83 71/134/82
f 56/150/87 76/138/85 73/137/86 54/149/85
f 74/140/88 66/139/88 49/110/88 55/109/88
f 69/144/89 76/143/90 56/151/89 52/152/91
f 80/156/95 77/153/92 78/154/93 79/155/94
f 82/159/97 79/160/94 78/157/93 81/158/96
f 83/162/98 84/163/99 82/164/97 81/161/96
f 83/165/98 77/166/92 80/167/95 84/168/99
f 77/153/61 68/124/61 67/123/61 78/154/61
f 1/1/62 80/156/62 79/155/62 2/2/62
f 81/158/22 78/157/22 67/130/22 72/129/22
f 79/160/63 82/159/63 3/3/63 2/2/63
f 75/135/62 83/162/62 81/161/62 72/136/62
f 84/163/61 4/4/61 3/3/61 82/164/61
f 77/166/63 83/165/63 75/142/63 68/141/63
f 84/168/22 80/167/22 1/1/22 4/4/22
f 85/169/100 86/170/100 37/75/100 39/79/100
f 40/82/62 87/171/62 85/172/62 39/83/62
f 88/173/63 87/174/63 40/82/63 38/76/63
f 88/176/101 38/76/101 37/75/101 86/175/101
f 92/180/103 89/177/102 90/178/102 91/179/103
f 92/180/63 94/182/63 93/181/63 89/177/63
f 93/181/62 94/182/62 96/184/62 95/183/62
f 96/184/105 91/186/106 90/185/104 95/183/104
f 57/188/61 92/180/103 91/179/103 58/187/61
f 57/188/63 63/189/63 94/182/63 92/180/63
f 94/182/62 63/189/62 61/190/62 96/184/62
f 61/190/22 58/191/22 91/186/106 96/184/105
f 41/85/110 88/192/107 86/193/108 42/86/109
f 89/195/112 44/88/113 43/87/114 90/194/111
f 86/196/115 85/197/116 45/90/117 42/89/118
f 95/198/119 90/194/120 43/87/120 46/91/120
f 87/200/121 47/93/121 45/92/121 85/199/121
f 48/94/123 93/201/122 95/198/122 46/91/123
f 41/96/125 47/95/126 87/202/124 88/203/124
f 48/94/128 44/88/127 89/195/127 93/201/127
