# ProBuilder 5.0.3
# https://unity3d.com/unity/features/worldbuilding/probuilder
# 18/6/2021 3:43:37 a. m.

mtllib ./Hologram_(1).mtl
o Hologram (1)

g Hologram (1)
v 0.08130002 -2.384186E-07 -0.2187501
v 0 -2.384186E-07 -0.2187501
v 0.07511145 -0.03111231 -0.2187501
v 0.03111219 0.07511115 -0.21875
v 0.05748779 0.05748761 -0.21875
v -0.25 0 0
v -0.25 -2.086163E-07 -0.15
v -0.2309699 0.09567086 -1.341105E-07
v -0.2309699 0.09567066 -0.1500001
v -0.1767767 0.1767767 -2.533197E-07
v -0.1767767 0.1767765 -0.1500003
v -0.09567086 0.2309699 -3.278255E-07
v -0.09567086 0.2309697 -0.1500003
v 1.092785E-08 0.25 -3.576279E-07
v 1.092785E-08 0.2499998 -0.1500004
v 0.09567085 0.2309699 -3.278255E-07
v 0.09567085 0.2309697 -0.1500003
v 0.1767767 0.1767767 -2.533197E-07
v 0.1767767 0.1767765 -0.1500003
v 0.2309699 0.09567087 -1.341105E-07
v 0.2309699 0.09567066 -0.1500001
v 0.25 -2.185569E-08 3.197442E-14
v 0.25 -2.235174E-07 -0.15
v 0.2309699 -0.09567086 1.341105E-07
v 0.2309699 -0.09567106 -0.1499999
v 0.1767767 -0.1767767 2.533197E-07
v 0.1767767 -0.1767769 -0.1499998
v 0.09567089 -0.2309699 3.278255E-07
v 0.09567089 -0.2309701 -0.1499997
v -2.98122E-09 -0.25 3.576279E-07
v -2.98122E-09 -0.2500002 -0.1499996
v -0.0956709 -0.2309699 3.278255E-07
v -0.0956709 -0.2309701 -0.1499997
v -0.1767767 -0.1767767 2.533197E-07
v -0.1767767 -0.1767769 -0.1499998
v -0.2309699 -0.09567086 1.341105E-07
v -0.2309699 -0.09567106 -0.1499999
v -0.03111219 -0.07511164 -0.2187501
v -0.05748779 -0.05748808 -0.2187501
v -0.07511145 -0.03111231 -0.2187501
v 0 -0.08130026 -0.2187501
v 0.03111219 -0.07511164 -0.2187501
v -0.08130002 -2.384186E-07 -0.2187501
v -0.07511139 0.03111196 -0.2187501
v 0.05748779 -0.05748808 -0.2187501
v -0.05748779 0.05748761 -0.21875
v -0.03111219 0.07511115 -0.21875
v 0 0.08129978 -0.21875
v 0.07511145 0.03111196 -0.2187501
v -0.1325825 -0.1325828 -0.1875001
v -0.07175317 -0.1732277 -0.1875001
v 0 -0.1875002 -0.1875001
v -0.1732274 -0.0717534 -0.1875001
v -0.1875 -2.384186E-07 -0.1875001
v 0.07175314 -0.1732277 -0.1875001
v -0.1732274 0.07175291 -0.1875001
v 0.1325825 -0.1325828 -0.1875001
v -0.1325825 0.1325823 -0.1875001
v 0.1732274 -0.0717534 -0.1875001
v -0.07175314 0.1732272 -0.1875001
v 0.1875 -2.384186E-07 -0.1875001
v 0 0.1874998 -0.1875001
v 0.1732274 0.07175291 -0.1875001
v 0.07175314 0.1732272 -0.1875001
v 0.1325825 0.1325823 -0.1875001
v -0.1160097 -0.11601 -0.1250001
v -0.06278402 -0.1515743 -0.1250001
v 0 -0.1640627 -0.1250001
v -0.151574 -0.06278419 -0.1250001
v -0.1640625 -2.384186E-07 -0.1250001
v 0.06278402 -0.1515743 -0.1250001
v -0.151574 0.06278372 -0.1250001
v 0.1160097 -0.11601 -0.1250001
v -0.1160097 0.1160095 -0.1250001
v 0.151574 -0.06278419 -0.1250001
v -0.06278402 0.1515738 -0.1250001
v 0.1640625 -2.384186E-07 -0.1250001
v 0 0.1640623 -0.1250001
v 0.151574 0.06278372 -0.1250001
v 0.06278402 0.1515738 -0.1250001
v 0.1160097 0.1160095 -0.1250001
v -0.08700725 -0.08700752 -0.1250001
v -0.04708803 -0.1136807 -0.1250001
v 0 -0.1230471 -0.1250001
v -0.1136805 -0.04708815 -0.1250001
v -0.1230469 -2.384186E-07 -0.1250001
v 0.04708803 -0.1136807 -0.1250001
v -0.1136805 0.0470878 -0.1250001
v 0.08700728 -0.08700752 -0.1250001
v -0.08700728 0.08700705 -0.1250001
v 0.1136805 -0.04708815 -0.1250001
v -0.04708803 0.1136802 -0.1250001
v 0.1230469 -2.384186E-07 -0.1250001
v 0 0.1230466 -0.1250001
v 0.1136805 0.0470878 -0.1250001
v 0.04708803 0.1136802 -0.1250001
v 0.08700728 0.08700705 -0.1250001
v -0.07707606 -0.07707633 -0.1875001
v -0.0417133 -0.100705 -0.1875001
v 1.0005E-09 -0.1090023 -0.1875001
v -0.1007048 -0.04171343 -0.1875001
v -0.109002 -2.384186E-07 -0.1875001
v 0.0417133 -0.100705 -0.1875001
v -0.1007047 0.04171306 -0.1875001
v 0.07707609 -0.07707633 -0.1875001
v -0.07707608 0.07707585 -0.1875001
v 0.1007048 -0.04171343 -0.1875001
v -0.0417133 0.1007045 -0.1875001
v 0.109002 -2.384186E-07 -0.1875001
v 1.0005E-09 0.1090018 -0.1875001
v 0.1007048 0.04171306 -0.1875001
v 0.0417133 0.1007045 -0.1875001
v 0.07707609 0.07707585 -0.1875001

vt 0.6201016 0.7397951
vt 0.7014015 0.7397951
vt 0.6262901 0.708683
vt 0.6702893 0.8149065
vt 0.6439138 0.7972829
vt 0.4081606 0.1722512
vt 0.4081606 0.3222511
vt 0.5057058 0.1722512
vt 0.5057058 0.3222511
vt 0.6032511 0.1722512
vt 0.6032511 0.3222511
vt 0.7007962 0.1722512
vt 0.7007962 0.3222511
vt 0.7983414 0.1722512
vt 0.7983414 0.3222511
vt 0.01798022 0.01112552
vt 0.01798022 0.1611255
vt 0.1155254 0.01112552
vt 0.1155254 0.1611255
vt 0.2130705 0.01112552
vt 0.2130705 0.1611255
vt 0.3106157 0.01112552
vt 0.3106157 0.1611255
vt 0.4081609 0.01112552
vt 0.4081609 0.1611255
vt 0.5057061 0.01112552
vt 0.5057061 0.1611255
vt 0.6032511 0.01112552
vt 0.6032511 0.1611255
vt 0.7007962 0.01112552
vt 0.7007962 0.1611255
vt 0.7983414 0.01112552
vt 0.7983414 0.1611255
vt 0.01798004 0.1722512
vt 0.01798004 0.3222511
vt 0.1155252 0.1722512
vt 0.1155252 0.3222511
vt 0.2130703 0.1722512
vt 0.2130703 0.3222511
vt 0.3106155 0.1722512
vt 0.3106155 0.3222511
vt 0.7325137 0.6646837
vt 0.7588893 0.6823072
vt 0.7765129 0.708683
vt 0.7014015 0.6584951
vt 0.6702893 0.6646837
vt 0.7827016 0.7397951
vt 0.7765129 0.7709073
vt 0.6439138 0.6823072
vt 0.7588893 0.7972829
vt 0.7325137 0.8149065
vt 0.7014015 0.8210951
vt 0.6262901 0.7709073
vt 0.4412226 0.5630183
vt 0.3601169 0.5088252
vt 0.3970284 0.6072126
vt 0.3361991 0.5665677
vt 0.264446 0.489795
vt 0.264446 0.5522951
vt 0.4954159 0.6441242
vt 0.4376734 0.6680419
vt 0.514446 0.739795
vt 0.451946 0.7397951
vt 0.168775 0.5088252
vt 0.1926928 0.5665677
vt 0.4954159 0.8354659
vt 0.4376734 0.8115482
vt 0.08766925 0.5630184
vt 0.1318634 0.6072126
vt 0.4412226 0.9165717
vt 0.3970285 0.8723777
vt 0.03347605 0.6441242
vt 0.09121853 0.6680419
vt 0.3601168 0.9707649
vt 0.3361991 0.9130226
vt 0.01444596 0.739795
vt 0.07694596 0.7397951
vt 0.264446 0.989795
vt 0.264446 0.9272951
vt 0.03347605 0.8354659
vt 0.09121853 0.8115482
vt 0.1687751 0.9707649
vt 0.1926928 0.9130226
vt 0.08766925 0.9165717
vt 0.1318634 0.8723777
vt 0.5743232 0.5435526
vt 0.6474456 0.5458595
vt 0.5809931 0.4771367
vt 0.6449752 0.4791552
vt 0.7201972 0.5381502
vt 0.7086328 0.4724096
vt 0.5022022 0.5312731
vt 0.5178872 0.4663921
vt 0.4324365 0.5092514
vt 0.4568422 0.4471231
vt 0.7912123 0.5205697
vt 0.7707711 0.4570267
vt 0.9185533 0.3644857
vt 0.976616 0.3199779
vt 0.8816687 0.3088521
vt 0.9324735 0.2699078
vt 0.859158 0.4934479
vt 0.8302237 0.433295
vt 0.8549522 0.4006399
vt 0.8260178 0.3404871
vt 0.9227591 0.4572937
vt 0.8858746 0.4016601
vt 0.7870064 0.4277617
vt 0.7665653 0.3642187
vt 0.9808217 0.4127859
vt 0.9366794 0.3627159
vt 0.7159913 0.4453422
vt 0.7044271 0.3796016
vt 0.4282307 0.4164434
vt 0.4979964 0.4384651
vt 0.4526365 0.3543151
vt 0.5136814 0.3735841
vt 0.6432398 0.4530515
vt 0.6407695 0.3863472
vt 0.5701173 0.4507446
vt 0.5767873 0.3843287
vt 0.3804557 0.6237853
vt 0.3272299 0.588221
vt 0.3514532 0.6527877
vt 0.311534 0.6261145
vt 0.264446 0.5757325
vt 0.264446 0.6167481
vt 0.41602 0.677011
vt 0.3781264 0.6927071
vt 0.4285085 0.739795
vt 0.3874928 0.739795
vt 0.201662 0.588221
vt 0.2173579 0.6261145
vt 0.4160199 0.802579
vt 0.3781264 0.7868831
vt 0.1484362 0.6237853
vt 0.1774387 0.6527877
vt 0.3804557 0.8558048
vt 0.3514532 0.8268024
vt 0.1128719 0.677011
vt 0.1507654 0.6927071
vt 0.3272299 0.8913691
vt 0.311534 0.8534756
vt 0.1003835 0.739795
vt 0.1413991 0.739795
vt 0.264446 0.9038576
vt 0.264446 0.862842
vt 0.1128719 0.802579
vt 0.1507654 0.7868831
vt 0.201662 0.8913691
vt 0.2173579 0.8534756
vt 0.1484362 0.8558048
vt 0.1774387 0.8268024
vt 0.8163124 0.6110274
vt 0.7763932 0.5843542
vt 0.7784775 0.662719
vt 0.7431148 0.6390904
vt 0.758288 0.5768546
vt 0.7112001 0.5674882
vt 0.7014015 0.6307931
vt 0.8568426 0.6648037
vt 0.8301693 0.6248844
vt 0.8021062 0.6980819
vt 0.8737085 0.7299967
vt 0.864342 0.6829087
vt 0.8104036 0.7397952
vt 0.6916032 0.5674882
vt 0.6445151 0.5768546
vt 0.6596883 0.6390904
vt 0.864342 0.7966816
vt 0.8737083 0.7495936
vt 0.8021062 0.7815084
vt 0.6264098 0.5843541
vt 0.5864908 0.6110274
vt 0.6243255 0.662719
vt 0.8301695 0.8547059
vt 0.8568426 0.8147867
vt 0.7784777 0.8168712
vt 0.5726337 0.6248843
vt 0.5459605 0.6648036
vt 0.6006968 0.6980819
vt 0.7763932 0.8952361
vt 0.8163124 0.8685629
vt 0.743115 0.8404998
vt 0.5384611 0.6829088
vt 0.5290947 0.7299968
vt 0.5923995 0.7397951
vt 0.7112001 0.912102
vt 0.758288 0.9027355
vt 0.7014015 0.8487972
vt 0.5290947 0.7495935
vt 0.5384611 0.7966815
vt 0.6006968 0.7815084
vt 0.6445149 0.9027356
vt 0.691603 0.9121021
vt 0.6596883 0.8404999
vt 0.5459605 0.8147867
vt 0.5726337 0.8547059
vt 0.6243255 0.8168712
vt 0.5864908 0.8685629
vt 0.6264101 0.8952361

vn 0 0 -1
vn -1 5.317582E-08 -2.4701E-09
vn -0.9238795 0.3826835 -5.322265E-07
vn -0.7071068 0.7071068 -9.834264E-07
vn -0.3826835 0.9238795 -1.284908E-06
vn -3.798273E-08 1 -1.390775E-06
vn 0.3826835 0.9238795 -1.284909E-06
vn 0.7071068 0.7071068 -9.834264E-07
vn 0.9238795 0.3826835 -5.322266E-07
vn 1 -5.317582E-08 -2.141064E-09
vn 0.9238795 -0.3826835 5.133829E-07
vn 0.7071069 -0.7071066 9.763921E-07
vn 0.3826835 -0.9238795 1.284908E-06
vn -6.836892E-08 -1 1.390775E-06
vn -0.3826835 -0.9238795 1.217965E-06
vn -0.7071067 -0.7071068 9.131817E-07
vn -0.9238795 -0.3826835 5.061845E-07
vn -0.3638051 -0.3638061 -0.8574911
vn -0.1968903 -0.4753359 -0.8574905
vn -8.987395E-08 -0.5145001 -0.8574904
vn -5.242647E-08 -0.5145 -0.8574904
vn -0.4753334 -0.1968905 -0.8574919
vn -0.514496 -9.062289E-07 -0.8574927
vn 0.1968902 -0.475336 -0.8574905
vn -0.4753314 0.1968877 -0.8574936
vn 0.3638054 -0.3638064 -0.8574908
vn -0.3638024 0.3638014 -0.8574942
vn 0.475334 -0.1968908 -0.8574915
vn -0.1968883 0.4753293 -0.8574947
vn 0.5144966 -8.687815E-07 -0.8574924
vn -1.460452E-07 0.5144926 -0.8574948
vn 0.475332 0.196888 -0.8574932
vn 0.1968882 0.4753294 -0.8574946
vn 0.3638028 0.3638017 -0.8574939
vn 0.6620847 0.6620847 -0.3511234
vn 0.3583179 0.8650554 -0.3511231
vn -1.818888E-07 0.9363292 -0.3511233
vn 0.8650553 0.3583178 -0.3511236
vn 0.9363291 -3.031481E-07 -0.3511235
vn -0.3583175 0.8650556 -0.351123
vn 0.8650553 -0.3583174 -0.3511238
vn -0.6620848 0.6620846 -0.3511235
vn 0.6620849 -0.6620846 -0.3511234
vn -0.8650554 0.3583175 -0.3511236
vn 0.3583175 -0.8650555 -0.3511233
vn -0.9363292 -3.789351E-08 -0.3511234
vn 6.062962E-08 -0.9363292 -0.3511234
vn -0.8650554 -0.3583174 -0.3511235
vn -0.3583176 -0.8650554 -0.3511234
vn -0.6620846 -0.6620846 -0.3511237
vn -0.6899023 -0.6899018 -0.2192496
vn -0.3733725 -0.9014004 -0.2192495
vn 7.589593E-08 -0.9756688 -0.2192497
vn -0.9014005 -0.3733721 -0.2192496
vn -0.9756688 3.870693E-07 -0.2192497
vn 0.3733723 -0.9014005 -0.2192496
vn -0.9014004 0.3733723 -0.2192497
vn 0.6899022 -0.6899019 -0.2192496
vn -0.6899021 0.6899019 -0.2192497
vn 0.9014006 -0.3733718 -0.2192496
vn -0.3733723 0.9014004 -0.2192497
vn 0.9756688 -2.352774E-07 -0.2192496
vn 7.589594E-09 0.9756688 -0.2192496
vn 0.9014004 0.3733723 -0.2192498
vn 0.3733723 0.9014004 -0.2192496
vn 0.6899016 0.6899024 -0.2192496
vn -0.5291353 -0.5291346 -0.6633494
vn -0.2863653 -0.6913478 -0.66335
vn -1.35588E-07 -0.7483094 -0.6633499
vn -0.6913477 -0.2863654 -0.66335
vn -0.7483093 4.142966E-07 -0.66335
vn 0.2863656 -0.6913475 -0.6633501
vn -0.6913477 0.2863656 -0.6633499
vn 0.5291346 -0.529135 -0.6633497
vn -0.5291344 0.5291345 -0.6633501
vn 0.6913477 -0.2863648 -0.6633502
vn -0.2863655 0.6913474 -0.6633503
vn 0.7483093 -2.033819E-07 -0.66335
vn 1.506533E-07 0.7483091 -0.6633502
vn 0.6913476 0.2863654 -0.6633502
vn 0.2863652 0.6913475 -0.6633503
vn 0.5291343 0.5291349 -0.66335

usemtl DarkCyan_snaps002
f 8/8/3 9/9/3 7/7/2 6/6/2
f 10/10/4 11/11/4 9/9/3 8/8/3
f 12/12/5 13/13/5 11/11/4 10/10/4
f 14/14/6 15/15/6 13/13/5 12/12/5
f 16/18/7 17/19/7 15/17/6 14/16/6
f 18/20/8 19/21/8 17/19/7 16/18/7
f 20/22/9 21/23/9 19/21/8 18/20/8
f 22/24/10 23/25/10 21/23/9 20/22/9
f 24/26/11 25/27/11 23/25/10 22/24/10
f 26/28/12 27/29/12 25/27/11 24/26/11
f 28/30/13 29/31/13 27/29/12 26/28/12
f 30/32/14 31/33/14 29/31/13 28/30/13
f 32/36/15 33/37/15 31/35/14 30/34/14
f 34/38/16 35/39/16 33/37/15 32/36/15
f 36/40/17 37/41/17 35/39/16 34/38/16
f 6/6/2 7/7/2 37/41/17 36/40/17
f 50/56/18 51/57/19 33/55/19 35/54/18
f 51/57/19 52/59/21 31/58/20 33/55/19
f 53/61/22 50/56/18 35/54/18 37/60/22
f 54/63/23 53/61/22 37/60/22 7/62/23
f 52/59/21 55/65/24 29/64/24 31/58/20
f 56/67/25 54/63/23 7/62/23 9/66/25
f 55/65/24 57/69/26 27/68/26 29/64/24
f 58/71/27 56/67/25 9/66/25 11/70/27
f 57/69/26 59/73/28 25/72/28 27/68/26
f 60/75/29 58/71/27 11/70/27 13/74/29
f 59/73/28 61/77/30 23/76/30 25/72/28
f 62/79/31 60/75/29 13/74/29 15/78/31
f 61/77/30 63/81/32 21/80/32 23/76/30
f 64/83/33 62/79/31 15/78/31 17/82/33
f 63/81/32 65/85/34 19/84/34 21/80/32
f 65/85/34 64/83/33 17/82/33 19/84/34
f 66/88/35 67/89/36 51/87/36 50/86/35
f 67/89/36 68/91/37 52/90/37 51/87/36
f 69/93/38 66/88/35 50/86/35 53/92/38
f 70/95/39 69/93/38 53/92/38 54/94/39
f 68/91/37 71/97/40 55/96/40 52/90/37
f 72/100/41 70/101/39 54/99/39 56/98/41
f 71/97/40 73/103/42 57/102/42 55/96/40
f 74/105/43 72/100/41 56/98/41 58/104/43
f 73/103/42 75/107/44 59/106/44 57/102/42
f 76/109/45 74/105/43 58/104/43 60/108/45
f 75/107/44 77/111/46 61/110/46 59/106/44
f 78/113/47 76/109/45 60/108/45 62/112/47
f 77/116/46 79/117/48 63/115/48 61/114/46
f 80/119/49 78/113/47 62/112/47 64/118/49
f 79/117/48 81/121/50 65/120/50 63/115/48
f 81/121/50 80/119/49 64/118/49 65/120/50
f 82/124/1 83/125/1 67/123/1 66/122/1
f 83/125/1 84/127/1 68/126/1 67/123/1
f 85/129/1 82/124/1 66/122/1 69/128/1
f 86/131/1 85/129/1 69/128/1 70/130/1
f 84/127/1 87/133/1 71/132/1 68/126/1
f 88/135/1 86/131/1 70/130/1 72/134/1
f 87/133/1 89/137/1 73/136/1 71/132/1
f 90/139/1 88/135/1 72/134/1 74/138/1
f 89/137/1 91/141/1 75/140/1 73/136/1
f 92/143/1 90/139/1 74/138/1 76/142/1
f 91/141/1 93/145/1 77/144/1 75/140/1
f 94/147/1 92/143/1 76/142/1 78/146/1
f 93/145/1 95/149/1 79/148/1 77/144/1
f 96/151/1 94/147/1 78/146/1 80/150/1
f 95/149/1 97/153/1 81/152/1 79/148/1
f 97/153/1 96/151/1 80/150/1 81/152/1

usemtl Glowing_Prop_Screens
f 3/3/1 2/2/1 1/1/1
f 5/5/1 2/2/1 4/4/1
f 40/44/1 2/2/1 38/42/1
f 38/42/1 39/43/1 40/44/1
f 41/45/1 38/42/1 2/2/1
f 2/2/1 42/46/1 41/45/1
f 44/48/1 2/2/1 40/44/1
f 40/44/1 43/47/1 44/48/1
f 45/49/1 42/46/1 2/2/1
f 2/2/1 3/3/1 45/49/1
f 47/51/1 2/2/1 44/48/1
f 44/48/1 46/50/1 47/51/1
f 4/4/1 2/2/1 47/51/1
f 47/51/1 48/52/1 4/4/1
f 49/53/1 1/1/1 2/2/1
f 2/2/1 5/5/1 49/53/1
f 99/157/52 83/155/52 82/154/51
f 82/154/51 98/156/51 99/157/52
f 100/160/53 84/159/53 83/158/52
f 83/158/52 99/157/52 100/160/53
f 98/156/51 82/162/51 85/161/54
f 85/161/54 101/163/54 98/156/51
f 101/163/54 85/165/54 86/164/55
f 86/164/55 102/166/55 101/163/54
f 103/169/56 87/168/56 84/167/53
f 84/167/53 100/160/53 103/169/56
f 102/166/55 86/171/55 88/170/57
f 88/170/57 104/172/57 102/166/55
f 105/175/58 89/174/58 87/173/56
f 87/173/56 103/169/56 105/175/58
f 104/172/57 88/177/57 90/176/59
f 90/176/59 106/178/59 104/172/57
f 107/181/60 91/180/60 89/179/58
f 89/179/58 105/175/58 107/181/60
f 106/178/59 90/183/59 92/182/61
f 92/182/61 108/184/61 106/178/59
f 109/187/62 93/186/62 91/185/60
f 91/185/60 107/181/60 109/187/62
f 108/184/61 92/189/61 94/188/63
f 94/188/63 110/190/63 108/184/61
f 111/193/64 95/192/64 93/191/62
f 93/191/62 109/187/62 111/193/64
f 110/190/63 94/195/63 96/194/65
f 96/194/65 112/196/65 110/190/63
f 113/199/66 97/198/66 95/197/64
f 95/197/64 111/193/64 113/199/66
f 112/196/65 96/201/65 97/200/66
f 97/200/66 113/199/66 112/196/65
f 38/42/68 99/157/68 98/156/67
f 98/156/67 39/43/67 38/42/68
f 41/45/69 100/160/69 99/157/68
f 99/157/68 38/42/68 41/45/69
f 39/43/67 98/156/67 101/163/70
f 101/163/70 40/44/70 39/43/67
f 40/44/70 101/163/70 102/166/71
f 102/166/71 43/47/71 40/44/70
f 42/46/72 103/169/72 100/160/69
f 100/160/69 41/45/69 42/46/72
f 43/47/71 102/166/71 104/172/73
f 104/172/73 44/48/73 43/47/71
f 45/49/74 105/175/74 103/169/72
f 103/169/72 42/46/72 45/49/74
f 44/48/73 104/172/73 106/178/75
f 106/178/75 46/50/75 44/48/73
f 3/3/76 107/181/76 105/175/74
f 105/175/74 45/49/74 3/3/76
f 46/50/75 106/178/75 108/184/77
f 108/184/77 47/51/77 46/50/75
f 1/1/78 109/187/78 107/181/76
f 107/181/76 3/3/76 1/1/78
f 47/51/77 108/184/77 110/190/79
f 110/190/79 48/52/79 47/51/77
f 49/53/80 111/193/80 109/187/78
f 109/187/78 1/1/78 49/53/80
f 48/52/79 110/190/79 112/196/81
f 112/196/81 4/4/81 48/52/79
f 5/5/82 113/199/82 111/193/80
f 111/193/80 49/53/80 5/5/82
f 4/4/81 112/196/81 113/199/82
f 113/199/82 5/5/82 4/4/81

