# File produced by Open Asset Import Library (http://www.assimp.sf.net)
# (assimp v3.1.243586452)

mtllib Platafoma%20Movil.mtl

# vertex positions
v -2.448953 5.940264 1.336876
v 2.448953 5.940264 1.336876
v 2.448953 6.366555 1.336876
v -2.448953 6.366555 1.336876
v 2.448953 6.366555 -1.336876
v -2.448953 6.366555 -1.336876
v 2.448953 5.940264 -1.336876
v -2.448953 5.940264 -1.336876
v -0.667366 5.935600 -0.385304
v -0.385304 5.935600 -0.667366
v -0.000000 5.935600 0.000000
v -0.000000 5.935600 -0.770608
v 0.385304 5.935600 -0.667366
v 0.667366 5.935600 -0.385304
v 0.770608 5.935600 0.000000
v 0.667366 5.935600 0.385304
v 0.385304 5.935600 0.667366
v -0.000000 5.935600 0.770608
v -0.385304 5.935600 0.667366
v -0.667366 5.935600 0.385304
v -0.770608 5.935600 0.000000
v -0.918729 5.672723 -0.530428
v -0.530428 5.672723 -0.918729
v -0.385304 5.672723 -0.667366
v -0.667366 5.672723 -0.385304
v -0.000000 5.672723 -1.060856
v -0.000000 5.672723 -0.770608
v 0.530428 5.672723 -0.918729
v 0.385304 5.672723 -0.667366
v 0.918729 5.672723 -0.530428
v 0.667366 5.672723 -0.385304
v 1.060856 5.672723 0.000000
v 0.770608 5.672723 0.000000
v 0.918729 5.672723 0.530428
v 0.667366 5.672723 0.385304
v 0.530428 5.672723 0.918729
v 0.385304 5.672723 0.667366
v -0.000000 5.672723 1.060856
v -0.000000 5.672723 0.770608
v -0.530428 5.672723 0.918729
v -0.385304 5.672723 0.667366
v -0.918729 5.672723 0.530428
v -0.667366 5.672723 0.385304
v -1.060856 5.672723 0.000000
v -0.770608 5.672723 0.000000
v -0.918729 5.935600 -0.530428
v -0.530428 5.935600 -0.918729
v -0.000000 5.935600 -1.060856
v 0.530428 5.935600 -0.918729
v 0.918729 5.935600 -0.530428
v 1.060856 5.935600 0.000000
v 0.918729 5.935600 0.530428
v 0.530428 5.935600 0.918729
v -0.000000 5.935600 1.060856
v -0.530428 5.935600 0.918729
v -0.918729 5.935600 0.530428
v -1.060856 5.935600 0.000000

# UV coordinates
vt 0.013313 0.667227
vt 0.013313 0.001332
vt 0.071269 0.001332
vt 0.071269 0.667227
vt 0.434779 0.001332
vt 0.434779 0.667227
vt 0.492735 0.001332
vt 0.492735 0.667227
vt 0.856246 0.001332
vt 0.856246 0.667227
vt 0.874342 0.364842
vt 0.874342 0.001332
vt 0.932298 0.001332
vt 0.932298 0.364842
vt 0.940052 0.364842
vt 0.940052 0.001332
vt 0.998008 0.001332
vt 0.998008 0.364842
vt 0.215658 0.943922
vt 0.177789 0.981791
vt 0.126060 0.892194
vt 0.126060 0.995651
vt 0.074332 0.981791
vt 0.036463 0.943922
vt 0.022603 0.892194
vt 0.036463 0.840465
vt 0.074332 0.802597
vt 0.126060 0.788736
vt 0.177789 0.802597
vt 0.215658 0.840465
vt 0.229518 0.892194
vt 0.527824 0.920713
vt 0.479956 0.968581
vt 0.462065 0.937594
vt 0.496837 0.902822
vt 0.414566 0.986102
vt 0.414566 0.950321
vt 0.349177 0.968581
vt 0.367067 0.937594
vt 0.301309 0.920713
vt 0.332296 0.902822
vt 0.283788 0.855323
vt 0.319569 0.855323
vt 0.301309 0.789934
vt 0.332296 0.807824
vt 0.349177 0.742065
vt 0.367067 0.773053
vt 0.414566 0.724545
vt 0.414566 0.760325
vt 0.479956 0.742065
vt 0.462065 0.773053
vt 0.527824 0.789934
vt 0.496837 0.807824
vt 0.545345 0.855323
vt 0.509564 0.855323
vt 0.846569 0.775875
vt 0.878870 0.775875
vt 0.878870 0.980206
vt 0.846569 0.980206
vt 0.881959 0.778254
vt 0.904913 0.778254
vt 0.904913 0.978146
vt 0.881959 0.978146
vt 0.657917 0.973750
vt 0.615490 0.973750
vt 0.615490 0.777281
vt 0.657917 0.777281
vt 0.692214 0.779236
vt 0.723303 0.779236
vt 0.723303 0.977426
vt 0.692214 0.977426
vt 0.573064 0.973750
vt 0.573064 0.777281
vt 0.661125 0.779236
vt 0.661125 0.977426
vt 0.726273 0.774975
vt 0.758573 0.774975
vt 0.758573 0.979306
vt 0.726273 0.979306
vt 0.967891 0.777258
vt 0.990845 0.777258
vt 0.990845 0.977150
vt 0.967891 0.977150
vt 0.802698 0.774975
vt 0.802698 0.979306
vt 0.936536 0.777258
vt 0.936536 0.977150
vt 0.846822 0.774975
vt 0.846822 0.979306
vt 0.905181 0.777258
vt 0.905181 0.977150
vt 0.879123 0.774975
vt 0.879123 0.979306
vt 0.882227 0.777258
vt 0.882227 0.977150
vt 0.573094 0.777130
vt 0.616060 0.777130
vt 0.616060 0.976099
vt 0.573094 0.976099
vt 0.691423 0.977426
vt 0.660334 0.977426
vt 0.660334 0.779235
vt 0.691423 0.779235
vt 0.659026 0.777130
vt 0.659026 0.976099
vt 0.722511 0.977426
vt 0.722511 0.779235
vt 0.726020 0.775875
vt 0.758321 0.775875
vt 0.758321 0.980206
vt 0.726020 0.980206
vt 0.967624 0.778254
vt 0.990578 0.778254
vt 0.990578 0.978146
vt 0.967624 0.978146
vt 0.802445 0.775875
vt 0.802445 0.980206
vt 0.936269 0.778254
vt 0.936269 0.978146

# vertex normals
vn 0.000000 0.000000 1.000000
vn 0.000000 1.000000 0.000000
vn 0.000000 0.000000 -1.000000
vn 0.000000 -1.000000 0.000000
vn 1.000000 0.000000 0.000000
vn -1.000000 0.000000 0.000000
vn 0.000000 -1.000000 -0.000001
vn 0.000000 -1.000000 0.000001
vn 0.000000 -1.000000 -0.000000
vn 0.000000 -1.000000 -0.000001
vn 0.000000 -1.000000 -0.000001
vn 0.000000 -1.000000 -0.000000
vn 0.000000 -1.000000 -0.000000
vn 0.000000 -1.000000 0.000000
vn 0.000000 -1.000000 0.000000
vn 0.000000 -1.000000 0.000001
vn 0.000000 -1.000000 0.000001
vn 0.000000 -1.000000 0.000000
vn -0.707107 0.000000 -0.707106
vn 0.707107 0.000000 0.707107
vn -0.258819 0.000000 -0.965926
vn 0.258819 0.000000 0.965926
vn 0.258819 0.000000 -0.965926
vn -0.258819 0.000000 0.965926
vn 0.707107 0.000000 -0.707106
vn -0.707107 0.000000 0.707107
vn 0.965926 0.000000 -0.258819
vn -0.965926 0.000000 0.258819
vn 0.965926 0.000000 0.258819
vn -0.965926 0.000000 -0.258819
vn 0.707107 0.000000 0.707106
vn -0.707107 0.000000 -0.707107
vn 0.258819 0.000000 0.965926
vn -0.258819 0.000000 -0.965926
vn -0.258819 0.000000 0.965926
vn 0.258819 0.000000 -0.965926
vn -0.707107 0.000000 0.707106
vn 0.707107 0.000000 -0.707107
vn -0.965926 0.000000 0.258819
vn 0.965926 0.000000 -0.258819
vn -0.965926 0.000000 -0.258819
vn 0.965926 0.000000 0.258819

# Mesh
g pCube2
usemtl lambert1
f 2/2/1 3/3/1 4/4/1 1/1/1
f 3/3/2 5/5/2 6/6/2 4/4/2
f 5/5/3 7/7/3 8/8/3 6/6/3
f 7/7/4 2/9/4 1/10/4 8/8/4
f 5/13/5 3/14/5 2/11/5 7/12/5
f 4/17/6 6/18/6 8/15/6 1/16/6
f 9/19/4 10/20/4 11/21/4
f 10/20/4 12/22/4 11/21/4
f 12/22/4 13/23/7 11/21/4
f 13/23/7 14/24/7 11/21/4
f 14/24/7 15/25/4 11/21/4
f 15/25/4 16/26/4 11/21/4
f 16/26/4 17/27/4 11/21/4
f 17/27/4 18/28/4 11/21/4
f 18/28/4 19/29/8 11/21/4
f 19/29/8 20/30/8 11/21/4
f 20/30/8 21/31/4 11/21/4
f 21/31/4 9/19/4 11/21/4
f 23/33/10 24/34/11 25/35/12 22/32/9
f 26/36/13 27/37/13 24/34/11 23/33/10
f 28/38/4 29/39/4 27/37/13 26/36/13
f 30/40/4 31/41/4 29/39/4 28/38/4
f 30/40/4 32/42/4 33/43/4 31/41/4
f 32/42/4 34/44/14 35/45/15 33/43/4
f 35/45/15 34/44/14 36/46/16 37/47/17
f 37/47/17 36/46/16 38/48/18 39/49/18
f 39/49/18 38/48/18 40/50/4 41/51/4
f 41/51/4 40/50/4 42/52/4 43/53/4
f 45/55/4 43/53/4 42/52/4 44/54/4
f 25/35/12 45/55/4 44/54/4 22/32/9
f 47/57/19 23/58/19 22/59/19 46/56/19
f 24/63/20 10/60/20 9/61/20 25/62/20
f 48/65/21 26/66/21 23/67/21 47/64/21
f 27/71/22 12/68/22 10/69/22 24/70/22
f 49/72/23 28/73/23 26/66/23 48/65/23
f 29/75/24 13/74/24 12/68/24 27/71/24
f 50/77/25 30/78/25 28/79/25 49/76/25
f 31/83/26 14/80/26 13/81/26 29/82/26
f 51/84/27 32/85/27 30/78/27 50/77/27
f 33/87/28 15/86/28 14/80/28 31/83/28
f 32/85/29 51/84/29 52/88/29 34/89/29
f 15/86/30 33/87/30 35/91/30 16/90/30
f 34/89/31 52/88/31 53/92/31 36/93/31
f 16/90/32 35/91/32 37/95/32 17/94/32
f 36/99/33 53/96/33 54/97/33 38/98/33
f 17/101/34 37/102/34 39/103/34 18/100/34
f 38/98/35 54/97/35 55/104/35 40/105/35
f 18/100/36 39/103/36 41/107/36 19/106/36
f 40/111/37 55/108/37 56/109/37 42/110/37
f 19/113/38 41/114/38 43/115/38 20/112/38
f 42/110/39 56/109/39 57/116/39 44/117/39
f 20/112/40 43/115/40 45/119/40 21/118/40
f 46/56/41 22/59/41 44/117/41 57/116/41
f 25/62/42 9/61/42 21/118/42 45/119/42
